<svg width="216px" height="29px" viewBox="0 0 216 29" version="1.1" xmlns="http://www.w3.org/2000/svg" xmlns:xlink="http://www.w3.org/1999/xlink">
    <g id="Page-1" stroke="none" stroke-width="1" fill="none" fill-rule="evenodd">
        <g id="Desktop-HD-Copy" transform="translate(-116.000000, -43.000000)" fill="#263260" fill-rule="nonzero">
            <path d="M126.214844,56.0273438 L136.332031,56.0273438 L136.332031,61.828125 C136.279948,64.6797018 135.303395,67.0690008 133.402344,68.9960938 C131.488272,70.9101658 129.079442,71.8932289 126.175781,71.9453125 C123.936187,71.8932289 122.067716,71.3463594 120.570312,70.3046875 C119.046867,69.3020783 117.940108,68.1432357 117.25,66.828125 C117.041666,66.3984354 116.852865,65.9882832 116.683594,65.5976562 C116.527343,65.1940084 116.397136,64.686201 116.292969,64.0742188 C116.097655,62.9283797 116,60.7278809 116,57.4726562 C116,54.165348 116.097655,51.9518285 116.292969,50.8320312 C116.501303,49.712234 116.82031,48.8072951 117.25,48.1171875 C117.940108,46.8020768 119.046867,45.6302135 120.570312,44.6015625 C122.067716,43.5598906 123.936187,43.0260418 126.175781,43 C128.923191,43.0260418 131.162752,43.8398357 132.894531,45.4414062 C134.626311,47.0559977 135.72005,49.0546756 136.175781,51.4375 L131.605469,51.4375 C131.253904,50.2916609 130.61589,49.3151082 129.691406,48.5078125 C128.72786,47.7395795 127.555996,47.342448 126.175781,47.3164062 C125.160151,47.342448 124.287764,47.5442689 123.558594,47.921875 C122.816403,48.312502 122.21745,48.8007783 121.761719,49.3867188 C121.20182,49.998701 120.83073,50.7864535 120.648438,51.75 C120.440103,52.7656301 120.335938,54.6731631 120.335938,57.4726562 C120.335938,60.2721494 120.440103,62.1666617 120.648438,63.15625 C120.83073,64.1458383 121.20182,64.9466115 121.761719,65.5585938 C122.21745,66.1445342 122.816403,66.6197898 123.558594,66.984375 C124.287764,67.4140646 125.160151,67.6289062 126.175781,67.6289062 C127.855477,67.6289062 129.242182,67.0559953 130.335938,65.9101562 C131.429693,64.8164008 131.989583,63.3776131 132.015625,61.59375 L132.015625,60.109375 L126.214844,60.109375 L126.214844,56.0273438 Z M140.394531,57.4726562 C140.394531,54.165348 140.492187,51.9518285 140.6875,50.8320312 C140.895834,49.712234 141.214842,48.8072951 141.644531,48.1171875 C142.334639,46.8020768 143.441399,45.6302135 144.964844,44.6015625 C146.462247,43.5598906 148.330718,43.0260418 150.570312,43 C152.835949,43.0260418 154.723951,43.5598906 156.234375,44.6015625 C157.731778,45.6302135 158.812497,46.8020768 159.476562,48.1171875 C159.958336,48.8072951 160.290364,49.712234 160.472656,50.8320312 C160.641928,51.9518285 160.726562,54.165348 160.726562,57.4726562 C160.726562,60.7278809 160.641928,62.9283797 160.472656,64.0742188 C160.290364,65.2200578 159.958336,66.1380174 159.476562,66.828125 C158.812497,68.1432357 157.731778,69.3020783 156.234375,70.3046875 C154.723951,71.3463594 152.835949,71.8932289 150.570312,71.9453125 C148.330718,71.8932289 146.462247,71.3463594 144.964844,70.3046875 C143.441399,69.3020783 142.334639,68.1432357 141.644531,66.828125 C141.436197,66.3984354 141.247397,65.9882832 141.078125,65.5976562 C140.921874,65.1940084 140.791667,64.686201 140.6875,64.0742188 C140.492187,62.9283797 140.394531,60.7278809 140.394531,57.4726562 Z M144.730469,57.4726562 C144.730469,60.2721494 144.834634,62.1666617 145.042969,63.15625 C145.225261,64.1458383 145.596351,64.9466115 146.15625,65.5585938 C146.611981,66.1445342 147.210934,66.6197898 147.953125,66.984375 C148.682295,67.4140646 149.554682,67.6289062 150.570312,67.6289062 C151.598963,67.6289062 152.490882,67.4140646 153.246094,66.984375 C153.962243,66.6197898 154.535154,66.1445342 154.964844,65.5585938 C155.524742,64.9466115 155.908853,64.1458383 156.117188,63.15625 C156.312501,62.1666617 156.410156,60.2721494 156.410156,57.4726562 C156.410156,54.6731631 156.312501,52.7656301 156.117188,51.75 C155.908853,50.7864535 155.524742,49.998701 154.964844,49.3867188 C154.535154,48.8007783 153.962243,48.312502 153.246094,47.921875 C152.490882,47.5442689 151.598963,47.342448 150.570312,47.3164062 C149.554682,47.342448 148.682295,47.5442689 147.953125,47.921875 C147.210934,48.312502 146.611981,48.8007783 146.15625,49.3867188 C145.596351,49.998701 145.225261,50.7864535 145.042969,51.75 C144.834634,52.7656301 144.730469,54.6731631 144.730469,57.4726562 Z M162.796875,43.234375 L167.367188,43.234375 L173.832031,64.9140625 L173.910156,64.9140625 L180.394531,43.234375 L184.964844,43.234375 L175.550781,71.7109375 L172.191406,71.7109375 L162.796875,43.234375 Z M192.328125,55.7148438 L198.851562,55.7148438 C200.466154,55.688802 201.677079,55.2200566 202.484375,54.3085938 C203.27865,53.4622354 203.675781,52.4205791 203.675781,51.1835938 C203.649739,49.6992113 203.174484,48.6250033 202.25,47.9609375 C201.52083,47.3749971 200.466153,47.0820312 199.085938,47.0820312 L192.328125,47.0820312 L192.328125,55.7148438 Z M188.011719,43.234375 L199.125,43.234375 C201.494804,43.234375 203.428378,43.8593688 204.925781,45.109375 C206.735686,46.5286529 207.679687,48.5533723 207.757812,51.1835938 C207.705729,55.0508006 205.86981,57.6809826 202.25,59.0742188 L208.851562,71.7109375 L203.714844,71.7109375 L197.835938,59.5429688 L192.328125,59.5429688 L192.328125,71.7109375 L188.011719,71.7109375 L188.011719,43.234375 Z M212.40625,43.234375 L216.46875,43.234375 L229.359375,63.46875 L229.4375,63.46875 L229.4375,43.234375 L233.753906,43.234375 L233.753906,71.7109375 L229.671875,71.7109375 L216.800781,51.4765625 L216.722656,51.4765625 L216.722656,71.7109375 L212.40625,71.7109375 L212.40625,43.234375 Z M238.792969,57.4726562 C238.792969,54.165348 238.890624,51.9518285 239.085938,50.8320312 C239.294272,49.712234 239.613279,48.8072951 240.042969,48.1171875 C240.733076,46.8020768 241.839836,45.6302135 243.363281,44.6015625 C244.860685,43.5598906 246.729155,43.0260418 248.96875,43 C251.234386,43.0260418 253.122388,43.5598906 254.632812,44.6015625 C256.130216,45.6302135 257.210934,46.8020768 257.875,48.1171875 C258.356773,48.8072951 258.688801,49.712234 258.871094,50.8320312 C259.040365,51.9518285 259.125,54.165348 259.125,57.4726562 C259.125,60.7278809 259.040365,62.9283797 258.871094,64.0742188 C258.688801,65.2200578 258.356773,66.1380174 257.875,66.828125 C257.210934,68.1432357 256.130216,69.3020783 254.632812,70.3046875 C253.122388,71.3463594 251.234386,71.8932289 248.96875,71.9453125 C246.729155,71.8932289 244.860685,71.3463594 243.363281,70.3046875 C241.839836,69.3020783 240.733076,68.1432357 240.042969,66.828125 C239.834634,66.3984354 239.645834,65.9882832 239.476562,65.5976562 C239.320312,65.1940084 239.190105,64.686201 239.085938,64.0742188 C238.890624,62.9283797 238.792969,60.7278809 238.792969,57.4726562 Z M243.128906,57.4726562 C243.128906,60.2721494 243.233072,62.1666617 243.441406,63.15625 C243.623699,64.1458383 243.994789,64.9466115 244.554688,65.5585938 C245.010419,66.1445342 245.609371,66.6197898 246.351562,66.984375 C247.080733,67.4140646 247.95312,67.6289062 248.96875,67.6289062 C249.997401,67.6289062 250.889319,67.4140646 251.644531,66.984375 C252.360681,66.6197898 252.933592,66.1445342 253.363281,65.5585938 C253.92318,64.9466115 254.307291,64.1458383 254.515625,63.15625 C254.710938,62.1666617 254.808594,60.2721494 254.808594,57.4726562 C254.808594,54.6731631 254.710938,52.7656301 254.515625,51.75 C254.307291,50.7864535 253.92318,49.998701 253.363281,49.3867188 C252.933592,48.8007783 252.360681,48.312502 251.644531,47.921875 C250.889319,47.5442689 249.997401,47.342448 248.96875,47.3164062 C247.95312,47.342448 247.080733,47.5442689 246.351562,47.921875 C245.609371,48.312502 245.010419,48.8007783 244.554688,49.3867188 C243.994789,49.998701 243.623699,50.7864535 243.441406,51.75 C243.233072,52.7656301 243.128906,54.6731631 243.128906,57.4726562 Z M264.164062,43.234375 L268.226562,43.234375 L281.117188,63.46875 L281.195312,63.46875 L281.195312,43.234375 L285.511719,43.234375 L285.511719,71.7109375 L281.429688,71.7109375 L268.558594,51.4765625 L268.480469,51.4765625 L268.480469,71.7109375 L264.164062,71.7109375 L264.164062,43.234375 Z M310.726562,63.7421875 C310.101559,66.3854299 308.910165,68.4166596 307.152344,69.8359375 C305.342439,71.2421945 303.200533,71.9453125 300.726562,71.9453125 C298.486968,71.8932289 296.618497,71.3463594 295.121094,70.3046875 C293.597649,69.3020783 292.490889,68.1432357 291.800781,66.828125 C291.592447,66.3984354 291.403647,65.9882832 291.234375,65.5976562 C291.078124,65.1940084 290.947917,64.686201 290.84375,64.0742188 C290.648437,62.9283797 290.550781,60.7278809 290.550781,57.4726562 C290.550781,54.165348 290.648437,51.9518285 290.84375,50.8320312 C291.052084,49.712234 291.371092,48.8072951 291.800781,48.1171875 C292.490889,46.8020768 293.597649,45.6302135 295.121094,44.6015625 C296.618497,43.5598906 298.486968,43.0260418 300.726562,43 C303.473972,43.0260418 305.713533,43.8398357 307.445312,45.4414062 C309.177092,47.0559977 310.270831,49.0546756 310.726562,51.4375 L306.15625,51.4375 C305.804686,50.2916609 305.166671,49.3151082 304.242188,48.5078125 C303.278641,47.7395795 302.106778,47.342448 300.726562,47.3164062 C299.710932,47.342448 298.838545,47.5442689 298.109375,47.921875 C297.367184,48.312502 296.768231,48.8007783 296.3125,49.3867188 C295.752601,49.998701 295.381511,50.7864535 295.199219,51.75 C294.990884,52.7656301 294.886719,54.6731631 294.886719,57.4726562 C294.886719,60.2721494 294.990884,62.1666617 295.199219,63.15625 C295.381511,64.1458383 295.752601,64.9466115 296.3125,65.5585938 C296.768231,66.1445342 297.367184,66.6197898 298.109375,66.984375 C298.838545,67.4140646 299.710932,67.6289062 300.726562,67.6289062 C303.14845,67.6289062 304.958327,66.3333463 306.15625,63.7421875 L310.726562,63.7421875 Z M313.773438,43.234375 L331.957031,43.234375 L331.957031,47.3164062 L318.089844,47.3164062 L318.089844,55.4414062 L329.925781,55.4414062 L329.925781,59.2695312 L318.089844,59.2695312 L318.089844,67.6289062 L331.957031,67.6289062 L331.957031,71.7109375 L313.773438,71.7109375 L313.773438,43.234375 Z" id="GOVRNONCE"></path>
        </g>
    </g>
</svg>