
<svg width="38px" height="9px" viewBox="0 0 38 9" version="1.1" xmlns="http://www.w3.org/2000/svg" xmlns:xlink="http://www.w3.org/1999/xlink">
    <g id="Page-1" stroke="none" stroke-width="1" fill="none" fill-rule="evenodd">
        <g id="Desktop-HD-Copy" transform="translate(-558.000000, -484.000000)" fill="#C6C6C6" fill-rule="nonzero">
            <path d="M558.506836,488.704102 C558.506836,487.420892 558.840817,486.436527 559.508789,485.750977 C560.176761,485.065426 561.143548,484.722656 562.40918,484.722656 C563.692389,484.722656 564.667965,485.07861 565.335938,485.790527 C566.00391,486.502445 566.337891,487.473627 566.337891,488.704102 C566.337891,489.952155 565.999515,490.940914 565.322754,491.67041 C564.645993,492.399906 563.674811,492.764648 562.40918,492.764648 C561.143548,492.764648 560.176761,492.4043 559.508789,491.683594 C558.840817,490.962887 558.506836,489.969733 558.506836,488.704102 Z M573.193359,488.704102 C573.193359,487.420892 573.52734,486.436527 574.195312,485.750977 C574.863285,485.065426 575.830072,484.722656 577.095703,484.722656 C578.378913,484.722656 579.354489,485.07861 580.022461,485.790527 C580.690433,486.502445 581.024414,487.473627 581.024414,488.704102 C581.024414,489.952155 580.686039,490.940914 580.009277,491.67041 C579.332516,492.399906 578.361334,492.764648 577.095703,492.764648 C575.830072,492.764648 574.863285,492.4043 574.195312,491.683594 C573.52734,490.962887 573.193359,489.969733 573.193359,488.704102 Z M587.879883,488.704102 C587.879883,487.420892 588.213864,486.436527 588.881836,485.750977 C589.549808,485.065426 590.516595,484.722656 591.782227,484.722656 C593.065436,484.722656 594.041012,485.07861 594.708984,485.790527 C595.376956,486.502445 595.710938,487.473627 595.710938,488.704102 C595.710938,489.952155 595.372562,490.940914 594.695801,491.67041 C594.01904,492.399906 593.047858,492.764648 591.782227,492.764648 C590.516595,492.764648 589.549808,492.4043 588.881836,491.683594 C588.213864,490.962887 587.879883,489.969733 587.879883,488.704102 Z" id="…"></path>
        </g>
    </g>
</svg>